<svg width="52" height="52" viewBox="0 0 52 52" fill="none"
    xmlns="http://www.w3.org/2000/svg">
    <g clip-path="url(#clip0)">
        <path d="M38.853 5.324C31.755 -1.774 20.246 -1.774 13.147 5.324C6.75097 11.72 6.03097 23.763 11.459 31L26 52L40.541 31C45.969 23.763 45.249 11.72 38.853 5.324ZM26.177 24C22.863 24 20.177 21.314 20.177 18C20.177 14.686 22.863 12 26.177 12C29.491 12 32.177 14.686 32.177 18C32.177 21.314 29.491 24 26.177 24Z" fill="#1081E0"/>
        <path d="M35.957 16.293L37.6869 17.415C37.8826 17.5455 38 17.7652 38 18C38 18.2348 37.8826 18.4545 37.6869 18.585L35.957 19.707C35.3706 20.0977 35.164 20.8688 35.4764 21.5005L36.3732 23.3133C36.4775 23.5241 36.4693 23.7727 36.3519 23.9766C36.2345 24.1798 36.023 24.3116 35.7882 24.3268L33.7694 24.4572C33.0663 24.5025 32.5026 25.0663 32.4573 25.7694L32.3268 27.7881C32.3117 28.023 32.1799 28.2344 31.9766 28.3518C31.772 28.47 31.5227 28.4782 31.3133 28.3731L29.5013 27.4763C28.8682 27.1639 28.0971 27.3692 27.7071 27.957L26.585 29.7065C26.4545 29.9022 26.2273 30 26 30C25.7727 30 25.5455 29.9022 25.415 29.7065L24.293 27.957C23.9023 27.3693 23.1298 27.164 22.4995 27.4764L20.6867 28.3732C20.4759 28.4782 20.2267 28.47 20.0234 28.3519C19.8202 28.2345 19.6884 28.023 19.6732 27.7882L19.5428 25.7694C19.4975 25.0663 18.9337 24.5026 18.2306 24.4573L16.2119 24.3268C15.977 24.3117 15.7656 24.1799 15.6482 23.9766C15.5307 23.7727 15.5225 23.5241 15.6269 23.3133L16.5237 21.5013C16.8361 20.8689 16.6294 20.0978 16.043 19.7071L14.3131 18.585C14.1174 18.4545 14 18.2348 14 18C14 17.7652 14.1174 17.5455 14.3131 17.415L16.043 16.293C16.6294 15.9023 16.836 15.1312 16.5236 14.4995L15.6268 12.6867C15.5225 12.4759 15.5307 12.2273 15.6481 12.0234C15.7655 11.8202 15.977 11.6884 16.2118 11.6732L18.2306 11.5428C18.9337 11.4975 19.4974 10.9337 19.5427 10.2306L19.6732 8.21189C19.6883 7.97705 19.8201 7.76559 20.0234 7.64817C20.2266 7.53145 20.4759 7.5232 20.6867 7.62689L22.4987 8.52366C23.1318 8.83678 23.9022 8.63077 24.2929 8.043L25.4149 6.31317C25.5454 6.11747 25.7651 6.00005 25.9999 6.00005C26.2347 6.00005 26.4545 6.11747 26.5849 6.31317L27.7069 8.043C28.0969 8.63077 28.8701 8.83678 29.5004 8.52366L31.3132 7.62689C31.5226 7.5232 31.7719 7.53145 31.9765 7.64817C32.1797 7.76559 32.3115 7.97709 32.3267 8.21189L32.4571 10.2306C32.5025 10.9337 33.0662 11.4975 33.7693 11.5428L35.788 11.6732C36.0229 11.6883 36.2343 11.8202 36.3517 12.0234C36.4692 12.2274 36.4774 12.4759 36.373 12.6867L35.4763 14.4988C35.164 15.1312 35.3706 15.9023 35.957 16.293V16.293Z" fill="#FDBF00"/>
        <path d="M27.707 8.04295C28.097 8.63072 28.8702 8.83673 29.5005 8.52361L31.3133 7.62684C31.5227 7.52316 31.772 7.53141 31.9766 7.64813C32.1798 7.76555 32.3116 7.97705 32.3268 8.21184L32.4572 10.2306C32.5025 10.9337 33.0663 11.4974 33.7694 11.5427L35.7881 11.6732C36.023 11.6883 36.2344 11.8201 36.3518 12.0234C36.4692 12.2273 36.4775 12.4759 36.3731 12.6867L35.4763 14.4987C35.1639 15.1311 35.3706 15.9022 35.957 16.2929L37.6868 17.4149C37.8825 17.5454 38 17.7651 38 17.9999C38 18.2347 37.8825 18.4545 37.6868 18.5849L35.957 19.7069C35.3706 20.0976 35.1639 20.8687 35.4763 21.5004L36.3731 23.3132C36.4775 23.524 36.4692 23.7726 36.3518 23.9765C36.2344 24.1797 36.0229 24.3115 35.7881 24.3267L33.7694 24.4571C33.0663 24.5025 32.5025 25.0662 32.4572 25.7693L32.3268 27.788C32.3117 28.0229 32.1798 28.2343 31.9766 28.3517C31.772 28.4699 31.5227 28.4781 31.3133 28.373L29.5012 27.4762C28.8681 27.1638 28.097 27.3691 27.707 27.9569L26.585 29.7065C26.4545 29.9022 26.2273 30 26 30V6C26.2348 6 26.4545 6.11742 26.585 6.31312L27.707 8.04295Z" fill="#FF9100"/>
        <path d="M26 11.6719C29.4949 11.6719 32.3281 14.5051 32.3281 18C32.3281 21.4949 29.4949 24.3281 26 24.3281C22.5051 24.3281 19.6719 21.4949 19.6719 18C19.6719 14.5051 22.5051 11.6719 26 11.6719Z" fill="#FFDA2D"/>
        <path d="M32.3281 18C32.3281 21.4895 29.4895 24.3281 26 24.3281V11.6719C29.4895 11.6719 32.3281 14.5105 32.3281 18Z" fill="#FDBF00"/>
    </g>
    <defs>
        <clipPath id="clip0">
            <rect width="52" height="52" fill="white"/>
        </clipPath>
    </defs>
</svg>
